<svg xmlns="http://www.w3.org/2000/svg" version="1.1" xmlns:xlink="http://www.w3.org/1999/xlink" xmlns:svgjs="http://svgjs.dev/svgjs" width="1500" height="189" viewBox="0 0 1500 189"><g transform="matrix(1,0,0,1,-0.9090909090909918,-0.2236137560553999)"><svg viewBox="0 0 396 50" data-background-color="#ffffff" preserveAspectRatio="xMidYMid meet" height="189" width="1500" xmlns="http://www.w3.org/2000/svg" xmlns:xlink="http://www.w3.org/1999/xlink"><g id="tight-bounds" transform="matrix(1,0,0,1,0.2400000000000091,0.05915707832153316)"><svg viewBox="0 0 395.52 49.881685843356934" height="49.881685843356934" width="395.52"><g><svg viewBox="0 0 464.0402981770732 58.52324123262147" height="49.881685843356934" width="395.52"><g transform="matrix(1,0,0,1,0,8.088233773828296)"><svg viewBox="0 0 395.52 42.34677368496488" height="42.34677368496488" width="395.52"><g id="textblocktransform"><svg viewBox="0 0 395.52 42.34677368496488" height="42.34677368496488" width="395.52" id="textblock"><g><svg viewBox="0 0 395.52 42.34677368496488" height="42.34677368496488" width="395.52"><g transform="matrix(1,0,0,1,0,0)"><svg width="395.52" viewBox="1.8 -36.65 348.77 37.35" height="42.34677368496488" data-palette-color="#636365"><path d="M46.85-4.15L53.3-4.15 53.3 0 35.85 0 35.85-4.15 41.8-4.15 41.8-20.95Q41.8-23.35 42.4-27.2L42.4-27.2 28.75 0.35 26.15 0.35 12.6-27Q13.05-23.05 13.05-20.95L13.05-20.95 13.05-4.15 19-4.15 19 0 1.8 0 1.8-4.15 8.2-4.15 8.2-30.15 1.8-30.15 1.8-34.3 13.9-34.3 27.65-6.85 41.15-34.3 53.25-34.3 53.25-30.15 46.85-30.15 46.85-4.15ZM78.2-6.7L80.3-3.5Q75.5 0.7 69.35 0.7L69.35 0.7Q66 0.7 63-0.7 60-2.1 58.15-4.8 56.3-7.5 56.3-11.2L56.3-11.2Q56.3-15.15 58.2-18.1 60.1-21.05 63.15-22.63 66.2-24.2 69.55-24.2L69.55-24.2Q72.5-24.2 74.82-23.25 77.15-22.3 78.47-20.6 79.8-18.9 79.8-16.7L79.8-16.7Q79.8-13.4 76.97-11.58 74.15-9.75 70.2-9.75L70.2-9.75Q67.65-9.75 65.45-10.28 63.25-10.8 61-11.8L61-11.8 61-11.35Q61-9 62.12-7.2 63.25-5.4 65.15-4.45 67.05-3.5 69.3-3.5L69.3-3.5Q74.4-3.5 78.2-6.7L78.2-6.7ZM69.9-20.3Q67.2-20.3 64.87-18.75 62.55-17.2 61.55-14.55L61.55-14.55Q65.35-13.2 69.15-13.2L69.15-13.2Q71.65-13.2 73.27-14.13 74.9-15.05 74.9-16.7L74.9-16.7Q74.9-18.3 73.5-19.3 72.1-20.3 69.9-20.3L69.9-20.3ZM105.1-24.15L107.2-24.15 107.2-14.15 102.85-14.15 102.85-19.3Q100.9-19.3 98.6-17.85 96.3-16.4 93.85-13.75L93.85-13.75 93.85-3.95 99.2-3.95 99.2 0 83.65 0 83.65-3.95 88.95-3.95 88.95-19.6 83.65-19.6 83.65-23.55 93.85-23.55 93.85-17.65Q96.5-20.7 99.37-22.43 102.25-24.15 105.1-24.15L105.1-24.15ZM132.24-7L134.44-3.8Q129.79 0.7 123.59 0.7L123.59 0.7Q120.29 0.7 117.39-0.85 114.49-2.4 112.74-5.23 110.99-8.05 110.99-11.7L110.99-11.7Q110.99-15.15 112.59-18.03 114.19-20.9 116.89-22.55 119.59-24.2 122.74-24.2L122.74-24.2Q127.74-24.2 130.54-20.65L130.54-20.65 130.54-23.55 134.09-23.55 134.09-15.3 131.99-15.15Q129.54-20.15 124.19-20.15L124.19-20.15Q121.89-20.15 120.04-19.07 118.19-18 117.14-16.1 116.09-14.2 116.09-11.75L116.09-11.75Q116.09-9.35 117.22-7.45 118.34-5.55 120.17-4.53 121.99-3.5 124.09-3.5L124.09-3.5Q126.54-3.45 128.42-4.35 130.29-5.25 132.24-7L132.24-7ZM164.29-4.15L165.29-0.6Q163.64 0.4 161.44 0.4L161.44 0.4Q159.59 0.4 158.32-0.68 157.04-1.75 156.54-3.75L156.54-3.75Q151.54 0.7 146.64 0.7L146.64 0.7Q143.19 0.7 140.79-1.25 138.39-3.2 138.39-6.7L138.39-6.7Q138.39-9.1 139.74-10.88 141.09-12.65 143.37-13.58 145.64-14.5 148.29-14.5L148.29-14.5Q150.54-14.5 152.44-14.08 154.34-13.65 156.34-12.85L156.34-12.85 156.34-15.05Q156.34-17.6 154.64-18.8 152.94-20 150.19-20L150.19-20Q146.29-20 140.79-17.85L140.79-17.85 139.79-21.65Q145.69-24.15 150.79-24.15L150.79-24.15Q155.64-24.15 158.32-21.78 160.99-19.4 160.99-14.85L160.99-14.85 160.99-6.2Q160.99-3.75 162.74-3.75L162.74-3.75Q163.49-3.75 164.29-4.15L164.29-4.15ZM143.24-6.95Q143.24-5.25 144.59-4.33 145.94-3.4 147.89-3.4L147.89-3.4Q149.59-3.4 151.79-4.3 153.99-5.2 156.34-6.95L156.34-6.95 156.34-9.6Q152.94-10.8 149.14-10.9L149.14-10.9Q146.69-10.9 144.97-9.88 143.24-8.85 143.24-6.95L143.24-6.95ZM196.14-4.05L197.19-0.45Q196.49-0.05 195.49 0.23 194.49 0.5 193.39 0.5L193.39 0.5Q191.54 0.5 190.19-0.48 188.84-1.45 188.34-3.3L188.34-3.3Q186.34-1.5 184.11-0.4 181.89 0.7 179.19 0.7L179.19 0.7Q176.14 0.7 173.51-0.85 170.89-2.4 169.34-5.18 167.79-7.95 167.79-11.45L167.79-11.45Q167.79-15.1 169.41-18.03 171.04-20.95 173.84-22.58 176.64-24.2 180.04-24.2L180.04-24.2Q184.39-24.2 188.04-21L188.04-21 188.04-30.35 182.74-30.35 182.74-34.3 192.84-34.3 192.84-6.05Q192.84-3.65 194.49-3.65L194.49-3.65Q195.59-3.65 196.14-4.05L196.14-4.05ZM172.89-11.5Q172.89-7.9 174.91-5.7 176.94-3.5 180.19-3.5L180.19-3.5Q183.94-3.5 188.04-6.9L188.04-6.9 188.04-17.25Q184.54-20.05 181.14-20.05L181.14-20.05Q178.79-20.05 176.89-18.95 174.99-17.85 173.94-15.9 172.89-13.95 172.89-11.5L172.89-11.5ZM218.44 0.65Q213.44 0.65 209.36-1.63 205.29-3.9 202.96-7.95 200.64-12 200.64-17.15L200.64-17.15Q200.64-22.35 202.96-26.4 205.29-30.45 209.36-32.73 213.44-35 218.44-35L218.44-35Q223.39-35 227.46-32.73 231.54-30.45 233.86-26.38 236.19-22.3 236.19-17.15L236.19-17.15Q236.19-12 233.86-7.95 231.54-3.9 227.46-1.63 223.39 0.65 218.44 0.65L218.44 0.65ZM218.44-3.65Q222.04-3.65 224.86-5.38 227.69-7.1 229.26-10.18 230.84-13.25 230.84-17.15L230.84-17.15Q230.84-21.1 229.26-24.18 227.69-27.25 224.86-28.98 222.04-30.7 218.44-30.7L218.44-30.7Q214.79-30.7 211.94-28.98 209.09-27.25 207.54-24.15 205.99-21.05 205.99-17.15L205.99-17.15Q205.99-13.2 207.54-10.13 209.09-7.05 211.91-5.35 214.74-3.65 218.44-3.65L218.44-3.65ZM255.68-32.5Q253.38-32.5 251.98-31.05 250.58-29.6 250.58-27.05L250.58-27.05 250.58-23.55 258.08-23.55 258.08-19.6 250.58-19.6 250.58-3.95 257.48-3.95 257.48 0 240.43 0 240.43-3.95 245.73-3.95 245.73-19.6 240.43-19.6 240.43-23.55 245.73-23.55 245.73-26.9Q245.73-31.55 248.31-34.1 250.88-36.65 255.18-36.65L255.18-36.65Q257.38-36.65 259.21-36.08 261.03-35.5 263.43-34.4L263.43-34.4 261.63-30.6Q260.08-31.5 258.66-32 257.23-32.5 255.68-32.5L255.68-32.5ZM268.88-28.9Q267.28-28.9 266.18-29.75 265.08-30.6 265.08-31.9L265.08-31.9Q265.08-33.25 266.18-34.13 267.28-35 268.88-35L268.88-35Q270.58-35 271.68-34.13 272.78-33.25 272.78-31.9L272.78-31.9Q272.78-30.6 271.68-29.75 270.58-28.9 268.88-28.9L268.88-28.9ZM271.88-3.95L277.23-3.95 277.23 0 261.68 0 261.68-3.95 266.98-3.95 266.98-19.6 261.68-19.6 261.68-23.55 271.88-23.55 271.88-3.95ZM301.03-7L303.23-3.8Q298.58 0.7 292.38 0.7L292.38 0.7Q289.08 0.7 286.18-0.85 283.28-2.4 281.53-5.23 279.78-8.05 279.78-11.7L279.78-11.7Q279.78-15.15 281.38-18.03 282.98-20.9 285.68-22.55 288.38-24.2 291.53-24.2L291.53-24.2Q296.53-24.2 299.33-20.65L299.33-20.65 299.33-23.55 302.88-23.55 302.88-15.3 300.78-15.15Q298.33-20.15 292.98-20.15L292.98-20.15Q290.68-20.15 288.83-19.07 286.98-18 285.93-16.1 284.88-14.2 284.88-11.75L284.88-11.75Q284.88-9.35 286-7.45 287.13-5.55 288.95-4.53 290.78-3.5 292.88-3.5L292.88-3.5Q295.33-3.45 297.2-4.35 299.08-5.25 301.03-7L301.03-7ZM313.73-28.9Q312.13-28.9 311.03-29.75 309.93-30.6 309.93-31.9L309.93-31.9Q309.93-33.25 311.03-34.13 312.13-35 313.73-35L313.73-35Q315.43-35 316.53-34.13 317.63-33.25 317.63-31.9L317.63-31.9Q317.63-30.6 316.53-29.75 315.43-28.9 313.73-28.9L313.73-28.9ZM316.73-3.95L322.08-3.95 322.08 0 306.53 0 306.53-3.95 311.83-3.95 311.83-19.6 306.53-19.6 306.53-23.55 316.73-23.55 316.73-3.95ZM337.62 0.7Q334.17 0.7 331.17-0.85 328.17-2.4 326.4-5.25 324.62-8.1 324.62-11.75L324.62-11.75Q324.62-15.45 326.4-18.28 328.17-21.1 331.17-22.65 334.17-24.2 337.62-24.2L337.62-24.2Q341.02-24.2 344-22.65 346.97-21.1 348.77-18.25 350.57-15.4 350.57-11.75L350.57-11.75Q350.57-8.1 348.82-5.25 347.07-2.4 344.1-0.85 341.12 0.7 337.62 0.7L337.62 0.7ZM337.62-3.25Q339.87-3.25 341.67-4.3 343.47-5.35 344.5-7.28 345.52-9.2 345.52-11.75L345.52-11.75Q345.52-14.3 344.5-16.23 343.47-18.15 341.67-19.2 339.87-20.25 337.62-20.25L337.62-20.25Q334.17-20.25 331.95-17.93 329.72-15.6 329.72-11.75L329.72-11.75Q329.72-7.9 331.95-5.58 334.17-3.25 337.62-3.25L337.62-3.25Z" opacity="1" transform="matrix(1,0,0,1,0,0)" fill="#636365" class="wordmark-text-0" data-fill-palette-color="primary" id="text-0"></path></svg></g></svg></g></svg></g></svg></g><g transform="matrix(1,0,0,1,405.5170569444517,0)"><svg viewBox="0 0 58.52324123262147 58.52324123262147" height="58.52324123262147" width="58.52324123262147"><g data-palette-color="#636365"><rect width="15.996352603583203" height="58.52324123262147" fill="#636365" stroke="transparent" data-fill-palette-color="accent" x="0" fill-opacity="1"></rect><rect width="15.996352603583203" height="58.52324123262147" fill="#636365" stroke="transparent" data-fill-palette-color="accent" x="19.50774707754049" fill-opacity="0.75"></rect><rect width="15.996352603583203" height="58.52324123262147" fill="#636365" stroke="transparent" data-fill-palette-color="accent" x="39.01549415508098" fill-opacity="0.5"></rect></g></svg></g></svg></g><defs></defs></svg><rect width="395.52" height="49.881685843356934" fill="none" stroke="none" visibility="hidden"></rect></g></svg></g></svg>